# xmcd
#
# Track frame offsets:
#	200
#	11225
#	23525
#	32675
#	46250
#	59375
#	70100
#	82700
#	92825
#	105125
#
# Disc length: 1523 seconds
#
# Revision: 1
# Processed by: cddbd v1.5.1PL0 Copyright (c) Steve Scherf et al.
# Submitted via: EasyCDDAExtractor 6.5.0.3
#
DISCID=6805f10a
DTITLE=Anacani - Lawrence Welk Presents Anacani
DYEAR=1981
DGENRE=Acapella
TTITLE0=Paloma Blanca
TTITLE1=Cuando
TTITLE2=In Acapulco
TTITLE3=Cu-Cu-Rru-Cu-Cu, Palama 
TTITLE4=Eres Tu
TTITLE5=Ay Jalisco
TTITLE6=It's Impossible
TTITLE7=Cuando Caliente El Sol
TTITLE8=Vaya Con Dios
TTITLE9=El Cumbanchero
EXTD=
EXTT0=
EXTT1=
EXTT2=
EXTT3=
EXTT4=
EXTT5=
EXTT6=
EXTT7=
EXTT8=
EXTT9=
PLAYORDER=
